# xmcd
#
# Track frame offsets: 
#        150
#        11458
#        22860
#        40984
#        52715
#        67053
#        81621
#        95590
#        109428
#        123449
#        137655
#        156418
#        166828
#
# Disc length: 2409 seconds
#
# Revision: 0
# Processed by: cddbd v1.5.2PL0 Copyright (c) Steve Scherf et al.
# Submitted via: ExactAudioCopy v0.99pb4
#
DISCID=aa09670d
DTITLE=St. Louis Slim - Penitentiary Blues
DYEAR=1900
DGENRE=Blues
TTITLE0=Bobcat Blues
TTITLE1=Stop and Listen
TTITLE2=I Be's Troubled
TTITLE3=Kind Hearted Woman
TTITLE4=Mississippi Blues
TTITLE5=New Shake 'em on Down
TTITLE6=Country Blues
TTITLE7=New Cairo Blues
TTITLE8=Penitentiary Blues
TTITLE9=Nobody Knows You When Your Down and Out
TTITLE10=Rollin' and Tumblin'
TTITLE11=When The Levee Breaks
TTITLE12=Nobody's Fault But Mine
EXTD=
EXTT0=
EXTT1=
EXTT2=
EXTT3=
EXTT4=
EXTT5=
EXTT6=
EXTT7=
EXTT8=
EXTT9=
EXTT10=
EXTT11=
EXTT12=
PLAYORDER=
